<svg xmlns="http://www.w3.org/2000/svg" width="24" height="24" viewBox="0 0 24 24" fill="none"><path opacity="0.4" d="M15.7975 10.8098L19.4967 10.4827C20.3269 10.4827 21 11.1623 21 12.0006C21 12.8388 20.3269 13.5185 19.4967 13.5185L15.7975 13.1913C15.1463 13.1913 14.6183 12.6582 14.6183 12.0006C14.6183 11.3419 15.1463 10.8098 15.7975 10.8098Z" fill="black"/><path d="M3.37522 10.87C3.43303 10.8116 3.64903 10.5648 3.85194 10.36C5.03556 9.07668 8.12607 6.97828 9.74278 6.33609C9.98823 6.23365 10.6089 6.01554 10.9417 6.00012C11.2591 6.00012 11.5624 6.07392 11.8515 6.21933C12.2126 6.42311 12.5006 6.74475 12.6598 7.12368C12.7613 7.38584 12.9206 8.17343 12.9206 8.18775C13.0787 9.04804 13.1649 10.447 13.1649 11.9935C13.1649 13.4651 13.0787 14.8068 12.9489 15.6814C12.9347 15.6968 12.7755 16.6739 12.602 17.0088C12.2846 17.6212 11.6638 18.0001 10.9995 18.0001H10.9417C10.5086 17.9858 9.59878 17.6058 9.59878 17.5926C8.06825 16.9504 5.05083 14.9533 3.83776 13.626C3.83776 13.626 3.49522 13.2845 3.34685 13.0719C3.11558 12.7657 2.99995 12.3868 2.99995 12.0078C2.99995 11.5848 3.12977 11.1916 3.37522 10.87Z" fill="black"/></svg>