<?xml version="1.0" encoding="UTF-8"?> <svg xmlns="http://www.w3.org/2000/svg" width="24" height="24" viewBox="0 0 24 24" fill="none"><g clip-path="url(#clip0_403_2826)"><path d="M7.00012 24L17.0001 24C18.3257 23.9984 19.5966 23.4711 20.5339 22.5338C21.4712 21.5964 21.9985 20.3256 22.0001 19L22.0001 5C21.9985 3.6744 21.4712 2.40356 20.5339 1.46622C19.5966 0.528881 18.3257 0.00158659 17.0001 -4.37114e-07L7.00012 -1.31134e-06C5.67453 0.00158549 4.40368 0.52888 3.46634 1.46622C2.52901 2.40356 2.00171 3.6744 2.00012 5L2.00012 19C2.00171 20.3256 2.529 21.5964 3.46634 22.5338C4.40368 23.4711 5.67453 23.9984 7.00012 24V24ZM17.0001 22L7.00012 22C6.20447 22 5.44141 21.6839 4.8788 21.1213C4.31619 20.5587 4.00012 19.7956 4.00012 19L4.00012 7L20.0001 7L20.0001 19C20.0001 19.7956 19.6841 20.5587 19.1214 21.1213C18.5588 21.6839 17.7958 22 17.0001 22ZM7.00012 2L17.0001 2C17.7958 2 18.5588 2.31607 19.1214 2.87868C19.6841 3.44129 20.0001 4.20435 20.0001 5L13.0001 5L13.0001 4C13.0001 3.73478 12.8948 3.48043 12.7072 3.29289C12.5197 3.10536 12.2653 3 12.0001 3C11.7349 3 11.4806 3.10536 11.293 3.29289C11.1055 3.48043 11.0001 3.73478 11.0001 4L11.0001 5L4.00012 5C4.00012 4.20435 4.31619 3.44129 4.8788 2.87868C5.44141 2.31607 6.20447 2 7.00012 2Z" fill="#374957"></path></g><defs><clipPath id="clip0_403_2826"><rect width="24" height="24" fill="white"></rect></clipPath></defs></svg> 