<?xml version="1.0" encoding="UTF-8"?>
<svg xmlns="http://www.w3.org/2000/svg" width="30" height="30" viewBox="0 0 30 30" fill="none"><g id="Iconly/Light-Outline/Buy"><g id="Buy"><g id="Group 7"><path id="Fill 1" fill-rule="evenodd" clip-rule="evenodd" d="M7.90961 10.4344L8.66336 19.3994C8.71836 20.0894 9.28211 20.6069 9.97086 20.6069H9.97586H23.6146H23.6171C24.2684 20.6069 24.8246 20.1219 24.9171 19.4781L26.1046 11.2794C26.1321 11.0844 26.0834 10.8894 25.9646 10.7319C25.8471 10.5731 25.6746 10.4706 25.4796 10.4431C25.2184 10.4531 14.3771 10.4381 7.90961 10.4344V10.4344ZM9.96836 22.4819C8.32211 22.4819 6.92836 21.1969 6.79461 19.5531L5.64961 5.93561L3.76586 5.61061C3.25461 5.52061 2.91336 5.03686 3.00086 4.52561C3.09086 4.01436 3.58461 3.68186 4.08461 3.76186L6.68461 4.21186C7.10336 4.28561 7.42211 4.63311 7.45836 5.05811L7.75211 8.55936C25.5971 8.56686 25.6546 8.57561 25.7409 8.58561C26.4371 8.68686 27.0496 9.05061 27.4671 9.61061C27.8846 10.1694 28.0596 10.8581 27.9596 11.5481L26.7734 19.7456C26.5496 21.3056 25.1946 22.4819 23.6196 22.4819H23.6134H9.97836H9.96836Z" fill="black"/><path id="Fill 3" fill-rule="evenodd" clip-rule="evenodd" d="M21.6095 15.0547H18.1445C17.6258 15.0547 17.207 14.6347 17.207 14.1172C17.207 13.5997 17.6258 13.1797 18.1445 13.1797H21.6095C22.127 13.1797 22.547 13.5997 22.547 14.1172C22.547 14.6347 22.127 15.0547 21.6095 15.0547" fill="black"/><path id="Fill 5" fill-rule="evenodd" clip-rule="evenodd" d="M9.43064 25.8775C9.80689 25.8775 10.1106 26.1813 10.1106 26.5575C10.1106 26.9338 9.80689 27.2388 9.43064 27.2388C9.05314 27.2388 8.74939 26.9338 8.74939 26.5575C8.74939 26.1813 9.05314 25.8775 9.43064 25.8775" fill="black"/></g><g id="Group 10"><mask id="mask0_33437_4502" style="mask-type:alpha" maskUnits="userSpaceOnUse" x="8" y="25" width="3" height="3"><path id="Clip 9" fill-rule="evenodd" clip-rule="evenodd" d="M8.74878 26.557C8.74878 26.9345 9.05253 27.2395 9.43128 27.2395V27.2395C9.80753 27.2395 10.1113 26.9345 10.1113 26.557V26.557C10.1113 26.1807 9.80753 25.877 9.43128 25.877V25.877C9.05253 25.877 8.74878 26.1807 8.74878 26.557V26.557Z" fill="white"/></mask><g mask="url(#mask0_33437_4502)"><path id="Fill 8" fill-rule="evenodd" clip-rule="evenodd" d="M2.5 33.4882H16.3612V19.627H2.5V33.4882Z" fill="black"/></g></g><g id="Group 15"><path id="Fill 11" fill-rule="evenodd" clip-rule="evenodd" d="M9.42939 26.3011C9.28814 26.3011 9.17314 26.4161 9.17314 26.5574C9.17314 26.8411 9.68689 26.8411 9.68689 26.5574C9.68689 26.4161 9.57064 26.3011 9.42939 26.3011M9.42939 28.1761C8.53689 28.1761 7.81189 27.4499 7.81189 26.5574C7.81189 25.6649 8.53689 24.9399 9.42939 24.9399C10.3219 24.9399 11.0481 25.6649 11.0481 26.5574C11.0481 27.4499 10.3219 28.1761 9.42939 28.1761" fill="black"/><path id="Fill 13" fill-rule="evenodd" clip-rule="evenodd" d="M23.531 25.8775C23.9072 25.8775 24.2122 26.1813 24.2122 26.5575C24.2122 26.9338 23.9072 27.2388 23.531 27.2388C23.1535 27.2388 22.8497 26.9338 22.8497 26.5575C22.8497 26.1813 23.1535 25.8775 23.531 25.8775" fill="black"/></g><g id="Group 18"><mask id="mask1_33437_4502" style="mask-type:alpha" maskUnits="userSpaceOnUse" x="22" y="25" width="3" height="3"><path id="Clip 17" fill-rule="evenodd" clip-rule="evenodd" d="M22.85 26.557C22.85 26.9345 23.1537 27.2395 23.5312 27.2395V27.2395C23.9062 27.2395 24.2125 26.9345 24.2125 26.557V26.557C24.2125 26.1807 23.9062 25.877 23.5312 25.877V25.877C23.1537 25.877 22.85 26.1807 22.85 26.557V26.557Z" fill="white"/></mask><g mask="url(#mask1_33437_4502)"><path id="Fill 16" fill-rule="evenodd" clip-rule="evenodd" d="M16.6 33.4882H30.4625V19.627H16.6V33.4882Z" fill="black"/></g></g><path id="Fill 19" fill-rule="evenodd" clip-rule="evenodd" d="M23.5297 26.3011C23.3897 26.3011 23.2747 26.4161 23.2747 26.5574C23.276 26.8436 23.7885 26.8411 23.7872 26.5574C23.7872 26.4161 23.671 26.3011 23.5297 26.3011M23.5297 28.1761C22.6372 28.1761 21.9122 27.4499 21.9122 26.5574C21.9122 25.6649 22.6372 24.9399 23.5297 24.9399C24.4235 24.9399 25.1497 25.6649 25.1497 26.5574C25.1497 27.4499 24.4235 28.1761 23.5297 28.1761" fill="black"/></g></g></svg>