<?xml version="1.0" encoding="UTF-8"?>
<svg xmlns="http://www.w3.org/2000/svg" width="30" height="30" viewBox="0 0 30 30" fill="none"><g id="Iconly/Light-Outline/Heart"><g id="Heart"><g id="Group 3"><mask id="mask0_33437_4394" style="mask-type:alpha" maskUnits="userSpaceOnUse" x="2" y="3" width="27" height="26"><path id="Clip 2" fill-rule="evenodd" clip-rule="evenodd" d="M2.5 3.75H28.0906V28.1262H2.5V3.75Z" fill="white"/></mask><g mask="url(#mask0_33437_4394)"><path id="Fill 1" fill-rule="evenodd" clip-rule="evenodd" d="M4.7797 15.1539C6.5322 20.6064 13.456 25.0151 15.296 26.1064C17.1422 25.0039 24.116 20.5464 25.8122 15.1589C26.926 11.6764 25.8922 7.26515 21.7847 5.9414C19.7947 5.30265 17.4735 5.6914 15.871 6.9314C15.536 7.1889 15.071 7.1939 14.7335 6.9389C13.036 5.66265 10.8185 5.2889 8.7972 5.9414C4.69595 7.2639 3.66595 11.6751 4.7797 15.1539M15.2972 28.1264C15.1422 28.1264 14.9885 28.0889 14.8485 28.0126C14.4572 27.7989 5.24095 22.7189 2.9947 15.7264C2.99345 15.7264 2.99345 15.7251 2.99345 15.7251C1.58345 11.3226 3.15345 5.79015 8.2222 4.1564C10.6022 3.3864 13.196 3.72515 15.2935 5.0489C17.326 3.7639 20.026 3.4089 22.3585 4.1564C27.4322 5.79265 29.0072 11.3239 27.5985 15.7251C25.4247 22.6376 16.141 27.7939 15.7472 28.0101C15.6072 28.0876 15.4522 28.1264 15.2972 28.1264" fill="black"/></g></g><path id="Fill 4" fill-rule="evenodd" clip-rule="evenodd" d="M22.6921 13.2813C22.2084 13.2813 21.7984 12.91 21.7584 12.42C21.6759 11.3925 20.9884 10.525 20.0096 10.2088C19.5159 10.0488 19.2459 9.52002 19.4046 9.02877C19.5659 8.53627 20.0896 8.26877 20.5846 8.42377C22.2884 8.97502 23.4821 10.4838 23.6284 12.2675C23.6696 12.7838 23.2859 13.2363 22.7696 13.2775C22.7434 13.28 22.7184 13.2813 22.6921 13.2813" fill="black"/></g></g></svg>