<?xml version="1.0" encoding="UTF-8"?>
<svg xmlns="http://www.w3.org/2000/svg" width="24" height="24" viewBox="0 0 24 24" fill="none"><g clip-path="url(#clip0_405_1399)"><path d="M7.49988 24L16.4999 24C17.9581 23.9984 19.3561 23.4184 20.3872 22.3873C21.4183 21.3562 21.9983 19.9582 21.9999 18.5L21.9999 5.5C21.9983 4.0418 21.4183 2.64377 20.3872 1.61267C19.3561 0.581562 17.9581 0.00158847 16.4999 -4.80825e-07L7.49988 -1.26763e-06C6.04168 0.00158743 4.64365 0.581561 3.61255 1.61267C2.58144 2.64377 2.00147 4.0418 1.99988 5.5L1.99988 18.5C2.00147 19.9582 2.58144 21.3562 3.61255 22.3873C4.64365 23.4184 6.04167 23.9984 7.49988 24V24ZM4.99988 6L10.9999 6L10.9999 5C10.9999 4.73478 11.1052 4.48043 11.2928 4.29289C11.4803 4.10536 11.7347 4 11.9999 4C12.2651 4 12.5195 4.10536 12.707 4.29289C12.8945 4.48043 12.9999 4.73478 12.9999 5L12.9999 6L18.9999 6L18.9999 18.5C18.9999 19.163 18.7365 19.7989 18.2676 20.2678C17.7988 20.7366 17.1629 21 16.4999 21L7.49988 21C6.83684 21 6.20095 20.7366 5.73211 20.2678C5.26327 19.7989 4.99988 19.163 4.99988 18.5L4.99988 6Z" fill="white"/></g><defs><clipPath id="clip0_405_1399"><rect width="24" height="24" fill="white" transform="translate(24 24) rotate(-180)"/></clipPath></defs></svg>